<svg xmlns:cc="http://creativecommons.org/ns#" xmlns="http://www.w3.org/2000/svg" xmlns:inkscape="http://www.inkscape.org/namespaces/inkscape" xmlns:svg="http://www.w3.org/2000/svg" xmlns:rdf="http://www.w3.org/1999/02/22-rdf-syntax-ns#" xmlns:sodipodi="http://sodipodi.sourceforge.net/DTD/sodipodi-0.dtd" xmlns:dc="http://purl.org/dc/elements/1.1/" version="1.1" x="0px" y="0px" viewBox="0 0 100 70" enable-background="new 0 0 100 100" xml:space="preserve" id="svg54" sodipodi:docname="dragdrop.svg" width="100" height="70" inkscape:version="0.92.1 r15371">
    <metadata id="metadata60">
        <rdf:RDF>
            <cc:Work rdf:about="">
                <dc:format>image/svg+xml</dc:format>
                <dc:type rdf:resource="http://purl.org/dc/dcmitype/StillImage"/>
                <dc:title/>
            </cc:Work>
        </rdf:RDF>
    </metadata>
    <defs id="defs58"/>
    <sodipodi:namedview pagecolor="#ffffff" bordercolor="#666666" borderopacity="1" objecttolerance="10" gridtolerance="10" guidetolerance="10" inkscape:pageopacity="0" inkscape:pageshadow="2" inkscape:window-width="3840" inkscape:window-height="2004" id="namedview56" showgrid="false" inkscape:zoom="10.680141" inkscape:cx="25.420617" inkscape:cy="57.459103" inkscape:window-x="-16" inkscape:window-y="-16" inkscape:window-maximized="1" inkscape:current-layer="svg54"/>
    <g id="g8" transform="translate(5.6254731,-9)">
        <g id="g6">
            <path d="m 78.904,61.18 -7.894,-7.894 5.858,-2.844 c 0.401,-0.192 0.642,-0.609 0.615,-1.054 -0.022,-0.445 -0.318,-0.829 -0.736,-0.972 L 67.189,45.128 V 27.902 h 2.377 c 0.609,0 1.098,-0.489 1.098,-1.098 0,-0.604 -0.489,-1.098 -1.098,-1.098 h -2.377 v -8.387 c 0,-0.609 -0.494,-1.098 -1.098,-1.098 H 20.134 c -0.609,0 -1.098,0.489 -1.098,1.098 v 8.387 h -2.542 c -0.604,0 -1.098,0.494 -1.098,1.098 0,0.609 0.494,1.098 1.098,1.098 h 2.542 v 23.89 c 0,0.604 0.489887,1.065146 1.098,1.098 h 37.019 l 3.87,11.249 c 0.148,0.417 0.533,0.708 0.972,0.736 0.445,0.033 0.862,-0.214 1.054,-0.615 l 2.849,-5.858 7.889,7.895 c 0.209,0.203 0.489,0.318 0.78,0.318 0.055,0 0.115,-0.005 0.17,-0.016 0.033,-0.006 0.066,-0.011 0.099,-0.022 0.038,-0.006 0.077,-0.016 0.115,-0.033 0.011,0 0.022,-0.005 0.033,-0.011 0.132,-0.055 0.253,-0.137 0.357,-0.236 l 3.563,-3.563 c 0.203,-0.203 0.324,-0.483 0.324,-0.774 -10e-4,-0.291 -0.121,-0.571 -0.324,-0.78 z M 21.232,18.417 h 43.76 v 18.3 L 54.026711,25.617263 C 53.614711,25.205263 52.557,25.018 52.145,25.43 L 36.867,42.703 31.802816,33.784263 C 31.390816,33.372263 30.614,33.185 30.202,33.597 l -8.971,4.965 V 18.417 Z m 0,32.277 0.04682,-9.632606 9.469101,-5.276842 4.970552,8.830105 C 36.004285,45.122397 37.229,45.448 37.641,45.036 L 53.154079,27.19621 64.992,39.825 v 4.546 l -9.997,-3.442 c -0.428,-0.148 -0.884,-0.011 -1.164,0.307 -0.005,0 -0.005,0 -0.011,0.005 -0.302,0.285 -0.423,0.73 -0.28,1.147 l 2.855,8.306 z m 53.335,13.27 -8.207,-8.207 c -0.253,-0.253 -0.609,-0.362 -0.961,-0.307 -0.351,0.06 -0.648,0.285 -0.807,0.604 l -2.355,4.859 -3.25,-9.443 c -0.011,-0.038 -0.022,-0.071 -0.038,-0.104 l -2.63,-7.653 17.2,5.918 -4.853,2.355 c -0.324,0.154 -0.549,0.456 -0.604,0.807 -0.06,0.351 0.055,0.708 0.302,0.961 l 8.213,8.207 z" id="path2" inkscape:connector-curvature="0" sodipodi:nodetypes="cccccccssscsssscssscssccccccscccccsccccccccccccccccscccccccccccscccccccccccc"/>
            <path d="m 75.341,68.297 c -0.104,0.104 -0.225,0.187 -0.357,0.236 0.132,-0.055 0.252,-0.137 0.357,-0.236 z" id="path4" inkscape:connector-curvature="0"/>
        </g>
    </g>
    <g id="g42" transform="translate(5.6254731,-9)">
        <g id="g12"/>
        <g id="g16">
            <path d="m 81.902,31.198 c -0.606,0 -1.506046,-0.649966 -1.098,-1.098 v -2.196 h -2.196 c -0.606,0 -1.098,-0.492 -1.098,-1.098 0,-0.606 0.492,-1.098 1.098,-1.098 h 3.294 C 82.508,25.708 83,26.2 83,26.806 V 30.1 c 0,0.607 -0.492,1.098 -1.098,1.098 z" id="path14" inkscape:connector-curvature="0" sodipodi:nodetypes="sscsssssss"/>
        </g>
        <g id="g20">
            <path d="m 81.902,60.505 c -0.606,0 -1.098,-0.492 -1.098,-1.098 V 52.08 c 0,-0.606 0.492,-1.098 1.098,-1.098 0.606,0 1.098,0.492 1.098,1.098 v 7.327 c 0,0.606 -0.492,1.098 -1.098,1.098 z m 0,-14.653 c -0.606,0 -1.098,-0.492 -1.098,-1.098 v -7.327 c 0,-0.606 0.492,-1.098 1.098,-1.098 0.606,0 1.098,0.492 1.098,1.098 v 7.327 c 0,0.606 -0.492,1.098 -1.098,1.098 z" id="path18" inkscape:connector-curvature="0" sodipodi:nodetypes="ssssssssssssss"/>
        </g>
        <g id="g24">
            <path d="m 81.902,71.779 h -3.294 c -0.606,0 -1.098,-0.492 -1.098,-1.098 0,-0.606 0.492,-1.098 1.098,-1.098 h 2.196 v -2.196 c 0,-0.606 0.492,-1.098 1.098,-1.098 0.606,0 1.098,0.492 1.098,1.098 v 3.294 c 0,0.606 -0.492,1.098 -1.098,1.098 z" id="path22" inkscape:connector-curvature="0" sodipodi:nodetypes="sssscsssss"/>
        </g>
        <g id="g28"/>
        <g id="g32">
            <path d="M 9.392,71.779 H 6.098 C 5.492,71.779 5,71.287 5,70.681 v -3.294 c 0,-0.606 0.492,-1.098 1.098,-1.098 0.606,0 1.098,0.492 1.098,1.098 v 2.196 h 2.196 c 0.606,0 1.098,0.492 1.098,1.098 0,0.606 -0.492,1.098 -1.098,1.098 z" id="path30" inkscape:connector-curvature="0" sodipodi:nodetypes="sssssscsss"/>
        </g>
        <g id="g36">
            <path d="M 6.098,60.505 C 5.492,60.505 5,60.013 5,59.407 V 52.08 c 0,-0.606 0.492,-1.098 1.098,-1.098 0.606,0 1.098,0.492 1.098,1.098 v 7.327 c 0,0.606 -0.492,1.098 -1.098,1.098 z m 0,-14.654 C 5.492,45.851 5,45.36 5,44.753 v -7.326 c 0,-0.606 0.492,-1.098 1.098,-1.098 0.606,0 1.098,0.492 1.098,1.098 v 7.326 c 0,0.607 -0.492,1.098 -1.098,1.098 z" id="path34" inkscape:connector-curvature="0" sodipodi:nodetypes="ssssssssssssss"/>
        </g>
        <g id="g40">
            <path d="M 6.098,31.198 C 5.492,31.198 5,30.707 5,30.1 V 26.806 C 5,26.2 5.492,25.708 6.098,25.708 h 3.294 c 0.606,0 1.098,0.492 1.098,1.098 0,0.606 -0.492,1.098 -1.098,1.098 H 7.196 V 30.1 c 0,0.607 -0.492,1.098 -1.098,1.098 z" id="path38" inkscape:connector-curvature="0"/>
        </g>
    </g>
    <g id="g48" transform="translate(5.6254731,-9)">
        <g id="g46">
            <path d="m 31.603,30.895 c -2.999,0 -5.438,-2.44 -5.438,-5.438 0,-2.999 2.44,-5.438 5.438,-5.438 2.998,0 5.438,2.44 5.438,5.438 0,2.998 -2.439,5.438 -5.438,5.438 z m 0,-8.681 c -1.788,0 -3.242,1.455 -3.242,3.242 0,1.788 1.455,3.242 3.242,3.242 1.788,0 3.242,-1.455 3.242,-3.242 0,-1.787 -1.454,-3.242 -3.242,-3.242 z" id="path44" inkscape:connector-curvature="0" sodipodi:nodetypes="ssssssssss"/>
        </g>
    </g>
    <g id="g78" transform="translate(5.6254731,-9)">
        <path sodipodi:nodetypes="ssssssssssssss" inkscape:connector-curvature="0" id="path34-2" d="m 14.755955,70.701455 c 0,-0.606 0.492,-1.098 1.098,-1.098 h 7.327 c 0.606,0 1.098,0.492 1.098,1.098 0,0.606 -0.492,1.098 -1.098,1.098 h -7.327 c -0.606,0 -1.098,-0.492 -1.098,-1.098 z m 16.654,0 c 0,-0.606 0.491,-1.098 1.098,-1.098 h 7.326 c 0.606,0 1.098,0.492 1.098,1.098 0,0.606 -0.492,1.098 -1.098,1.098 h -7.326 c -0.607,0 -1.098,-0.492 -1.098,-1.098 z"/>
        <path d="m 46.755955,70.701455 c 0,-0.606 0.492,-1.098 1.098,-1.098 h 7.327 c 0.606,0 1.098,0.492 1.098,1.098 0,0.606 -0.492,1.098 -1.098,1.098 h -7.327 c -0.606,0 -1.098,-0.492 -1.098,-1.098 z m 16.654,0 c 0,-0.606 0.491,-1.098 1.098,-1.098 h 7.326 c 0.606,0 1.098,0.492 1.098,1.098 0,0.606 -0.492,1.098 -1.098,1.098 h -7.326 c -0.607,0 -1.098,-0.492 -1.098,-1.098 z" id="path80" inkscape:connector-curvature="0" sodipodi:nodetypes="ssssssssssssss"/>
    </g>
</svg>