<!-- Generator: Adobe Illustrator 16.0.3, SVG Export Plug-In . SVG Version: 6.00 Build 0)  --><svg xmlns="http://www.w3.org/2000/svg" xmlns:xlink="http://www.w3.org/1999/xlink" version="1.1" id="Ebene_1" x="0px" y="0px" width="1064.963px" height="850.39px" viewBox="0 0 1064.963 850.39" enable-background="new 0 0 1064.963 850.39" xml:space="preserve">
<g>
	<!--<path fill-rule="evenodd" clip-rule="evenodd" fill="#F4AA2F" d="M1,847.885c2.596-0.042,5.191-0.121,7.787-0.121   c348.278-0.006,696.557-0.023,1044.835,0.14c5.968,0.003,7.412-1.309,7.41-7.365c-0.176-277.344-0.152-554.688-0.147-832.031   c0-2.396,0.079-4.792,0.121-7.188c0.368,0.261,1.251-0.607,1.211,0.6c-0.051,1.597-0.012,3.197-0.012,4.796   c0,278.991-0.014,557.981,0.113,836.973c0,4.496-1.015,5.51-5.509,5.509c-350.138-0.123-700.276-0.11-1050.414-0.187   C4.641,849.009,2.33,850.393,1,847.885z"/>-->
	<path fill-rule="evenodd" clip-rule="evenodd" fill="#F4AA2F" d="M289.913,516.632c-7.185,3.928-13.989,8.007-21.096,11.464   c-22.632,11.01-46.534,12.993-71.243,10.045c-30.939-3.691-57.31-17.039-79.246-38.501c-22.049-21.572-36.162-47.785-40.654-78.741   c-2.959-20.389-2.24-40.586,3.022-60.499c5.501-20.815,16.367-38.729,30.518-54.806c28.913-32.845,65.123-48.786,108.935-47.938   c23.92,0.463,45.356,7.958,65.147,20.941c1.434,0.941,2.86,2.982,4.598,2.114c1.837-0.918,0.836-3.283,0.839-4.967   c0.066-35.964,0.488-71.936-0.082-107.891c-0.426-26.919,10.25-47.75,31.327-63.804c7.021-5.348,13.255-4.464,18.25,2.878   c4.141,6.089,8.16,12.264,12.087,18.494c3.193,5.065,2.811,10.981-1.966,14.575c-10.037,7.552-12.42,17.658-12.405,29.492   c0.15,118.084-0.007,236.168,0.236,354.252c0.024,11.739-3.364,16.557-17.601,17.146c-4.986,0.207-9.99,0.113-14.983,0.01   c-10.873-0.229-14.755-4.226-14.808-14.997C290.772,522.954,291.25,519.94,289.913,516.632z M290.16,399.464   c0-8.772,0.11-17.545-0.019-26.316c-0.544-37.204-34.832-68.902-71.491-68.79c-39.199,0.12-68.771,17.456-85.891,51.763   c-16.185,32.435-13.651,65.239,7.208,96.335c19.705,29.376,67.273,47.998,101.495,35.605c23.515-8.516,39.477-23.661,46.327-48.248   C291.515,426.438,290.192,412.938,290.16,399.464z"/>
	<path fill-rule="evenodd" clip-rule="evenodd" fill="#E74F34" d="M653.336,240.795c0,32.773,0.145,65.547-0.07,98.319   c-0.087,13.295,5.719,23.293,15.611,31.434c2.003,1.648,4.206,3.07,6.105,4.823c4.012,3.697,5.752,8.104,3.4,13.436   c-3.555,8.065-8.429,15.374-13.482,22.526c-2.923,4.135-10.09,5.042-15.303,1.854c-13.747-8.404-26.174-18.187-32.566-33.752   c-1.554-3.787-3.612-4.482-7.137-1.676c-10.471,8.336-21.78,15.416-34.424,19.959c-8.053,2.895-16.285,5.495-24.869,6.367   c-50.894,5.172-92.946-12.743-126.008-50.792c-19.934-22.941-30.493-50.38-31.836-81.285c-1.447-33.289,6.427-63.645,26.722-90.166   c29.848-39.003,69.403-57.722,118.778-56.232c21.808,0.659,41.469,6.798,59.769,18.236c1.944,1.214,4.186,3.53,6.335,2.418   c2.377-1.229,1.129-4.326,1.08-6.609c-0.229-10.621,4.807-15.856,15.445-15.855c5.994,0,11.989,0.045,17.984,0.074   c9.157,0.042,14.317,5.034,14.401,14.407c0.134,15.187,0.037,30.375,0.037,45.563c0,18.984,0,37.969,0,56.953   C653.319,240.795,653.326,240.795,653.336,240.795z M605.395,266.46c0-9.346,0.023-16.538-0.004-23.729   c-0.097-25.69-11.999-45.095-32.926-58.822c-21.481-14.089-45.072-14.213-68.966-7.38c-32.551,9.308-60.611,40.958-63.803,78.021   c-2.208,25.647,4.76,48.521,21.351,68.201c16.169,19.18,37.224,29.259,61.721,34.074c31.704,6.232,72.501-15.268,81.032-54.312   C606.582,289.785,604.553,277.022,605.395,266.46z"/>
	<path fill-rule="evenodd" clip-rule="evenodd" fill="#F4AA2F" d="M849.419,533.535c-45.14-1.236-86.64,38.123-92.172,81.375   c-5.96,46.619,21.366,91.668,65.932,105.097c39.582,11.927,80.745-1.742,105.2-34.919c1.532-2.077,3.038-4.197,4.773-6.099   c4.04-4.427,9.072-5.146,14.107-2.365c6.797,3.752,13.42,7.868,19.842,12.235c7.181,4.885,8.485,12.045,3.653,19.124   c-21.276,31.172-50.217,52.215-86.981,60.065c-50.92,10.872-96.239-1.32-133.072-39.228   c-29.902-30.777-43.559-67.726-40.594-110.935c2.516-36.674,17.834-66.768,43.765-92.186   c19.492-19.106,42.339-31.784,69.141-36.868c27.083-5.137,53.65-4.765,78.316,9.822c29.212,17.276,44.446,43.487,44.945,76.851   c0.397,26.539-13.35,47.299-34.713,62.301c-26.155,18.366-55.506,29.4-86.897,35.301c-12.577,2.363-25.252,3.66-37.922,5.154   c-12.785,1.508-17.879-2.861-18.249-15.657c-0.149-5.189-0.295-10.38-0.506-15.565c-0.473-11.677,3.134-15.372,14.601-16.264   c30.604-2.379,60.433-8.084,88.157-22.034c9.231-4.645,17.01-11.055,23.082-19.501c4.401-6.12,5.691-12.548,4.507-20.18   c-3.551-22.831-21.512-35.063-43.521-35.525C853.016,533.497,851.217,533.53,849.419,533.535z"/>
	<path fill-rule="evenodd" clip-rule="evenodd" fill="#F4AA2F" d="M912.32,323.229c0-26.174-0.434-52.357,0.124-78.52   c0.541-25.463-19.148-50.409-44.826-55.722c-37.275-7.711-64.962,20.287-67.843,48.591c-0.625,6.144-0.792,12.356-0.808,18.537   c-0.129,50.548-0.127,101.097-0.281,151.645c-0.03,10.054-4.606,14.31-14.79,14.409c-5.794,0.058-11.588,0.089-17.382-0.022   c-10.565-0.202-15.078-4.402-15.104-14.949c-0.141-60.539-0.124-121.078-0.157-181.617c-0.005-9.767,0.201-19.459-4.178-28.706   c-3.268-6.896-7.678-12.521-13.944-16.764c-8.752-5.926-10.422-12.065-5.577-21.236c3.071-5.813,6.209-11.601,9.57-17.249   c3.958-6.643,10.799-8.172,17.474-4.085c10.829,6.63,20.417,14.683,27.661,25.209c2.349,3.415,4.147,3.941,7.48,1.029   c31.504-27.532,83.365-31.172,118.615-8.833c26.961,17.086,44.973,40.623,49.912,73.107c1.333,8.762,1.653,17.468,1.665,26.241   c0.057,50.35-0.049,100.7,0.154,151.049c0.043,10.271-4.44,17.877-17.062,16.891c-5.36-0.419-10.782-0.012-16.178-0.052   c-9.343-0.07-14.413-5.019-14.438-14.44c-0.073-28.172-0.026-56.344-0.026-84.516C912.362,323.229,912.341,323.229,912.32,323.229z   "/>
	<path fill-rule="evenodd" clip-rule="evenodd" fill="#E74F34" d="M551.021,768.957c-27.147-1.028-59.483-12.204-86.215-36.203   c-36.045-32.363-53.351-72.969-49.212-121.894c2.065-24.407,10.551-46.442,24.719-66.318   c19.643-27.555,45.041-47.612,77.721-57.226c37.629-11.069,73.924-7.602,107.477,13.534c10.684,6.73,20.375,15.111,28.207,25.395   c6.332,8.315,5.906,14.317-2.432,20.702c-5.36,4.104-10.754,8.166-16.199,12.157c-5.516,4.046-9.775,3.884-14.912-0.72   c-5.452-4.888-9.757-10.905-15.797-15.281c-17.249-12.498-36.706-16.197-57.201-13.334c-39.288,5.488-66.236,27.216-79.722,64.563   c-6.29,17.419-6.169,35.401-1.854,53.605c4.987,21.034,16.586,37.443,32.313,51.607c10.916,9.834,24.169,14.505,37.869,18.432   c18.559,5.32,36.957,5.582,54.964-2.171c11.103-4.781,20.42-12.085,28.577-20.96c4.584-4.987,9.947-5.379,15.245-1.266   c5.655,4.39,11.314,8.781,16.869,13.298c6.108,4.966,7.347,11.47,2.738,17.791c-9.181,12.589-21.301,21.963-34.862,29.317   C600.375,764.257,581.374,768.754,551.021,768.957z"/>
</g>
</svg>