<svg xmlns:cc="http://creativecommons.org/ns#" xmlns="http://www.w3.org/2000/svg" xmlns:inkscape="http://www.inkscape.org/namespaces/inkscape" xmlns:svg="http://www.w3.org/2000/svg" xmlns:rdf="http://www.w3.org/1999/02/22-rdf-syntax-ns#" xmlns:sodipodi="http://sodipodi.sourceforge.net/DTD/sodipodi-0.dtd" xmlns:dc="http://purl.org/dc/elements/1.1/" version="1.0" width="2303.000000pt" height="1502.000000pt" viewBox="0 0 2303.000000 1502.000000" preserveAspectRatio="xMidYMid meet" id="svg66" sodipodi:docname="icon.svg" inkscape:version="0.92.1 r15371">
  <defs id="defs70"/>
  <sodipodi:namedview pagecolor="#ffffff" bordercolor="#666666" borderopacity="1" objecttolerance="10" gridtolerance="10" guidetolerance="10" inkscape:pageopacity="0" inkscape:pageshadow="2" inkscape:window-width="1258" inkscape:window-height="723" id="namedview68" showgrid="false" inkscape:zoom="0.11039948" inkscape:cx="1503.6303" inkscape:cy="1363.6539" inkscape:window-x="477" inkscape:window-y="179" inkscape:window-maximized="0" inkscape:current-layer="g64"/>
  <metadata id="metadata2">
Created by potrace 1.15, written by Peter Selinger 2001-2017
<rdf:RDF>
  <cc:Work rdf:about="">
    <dc:format>image/svg+xml</dc:format>
    <dc:type rdf:resource="http://purl.org/dc/dcmitype/StillImage"/>
    <dc:title/>
  </cc:Work>
</rdf:RDF>
</metadata>
  <g transform="translate(0.000000,1502.000000) scale(0.100000,-0.100000)" fill="#000000" stroke="none" id="g64">
    <path d="M7500 13830 c-346 -48 -677 -186 -955 -399 -85 -65 -247 -223 -318 -311 -200 -247 -335 -534 -404 -859 -26 -119 -28 -141 -28 -386 0 -245 2 -267 28 -386 87 -409 274 -749 563 -1029 276 -267 595 -434 983 -517 119 -26 141 -27 386 -27 245 0 267 1 386 27 309 66 581 190 824 376 85 65 247 223 318 311 199 247 335 535 404 855 26 123 28 144 28 390 0 246 -2 267 -28 390 -65 304 -190 578 -376 820 -65 85 -223 247 -311 318 -246 199 -536 336 -853 403 -107 23 -151 26 -352 29 -126 2 -259 0 -295 -5z" id="path4"/>
    <path d="M15700 13830 c-346 -48 -677 -186 -955 -399 -85 -65 -247 -223 -318 -311 -199 -247 -335 -535 -404 -855 -26 -123 -28 -144 -28 -390 0 -246 2 -267 28 -390 87 -404 274 -746 563 -1025 276 -267 595 -434 983 -517 119 -26 141 -27 386 -27 245 0 267 1 386 27 309 66 581 190 824 376 85 65 247 223 318 311 200 247 335 534 404 859 26 119 28 141 28 386 0 245 -2 267 -28 386 -66 309 -190 581 -376 824 -65 85 -223 247 -311 318 -246 199 -536 336 -853 403 -107 23 -151 26 -352 29 -126 2 -259 0 -295 -5z" id="path6"/>
    <path d="M3255 12754 c-703 -108 -1275 -684 -1379 -1387 -21 -135 -21 -379 0 -514 51 -346 213 -664 468 -919 208 -208 441 -345 728 -428 262 -75 634 -75 896 0 287 83 520 220 728 428 255 255 417 573 468 919 21 135 21 379 0 514 -105 707 -680 1282 -1387 1387 -129 20 -397 19 -522 0z" id="path8" style="fill:#008000"/>
    <path d="M19925 12754 c-703 -108 -1275 -684 -1379 -1387 -21 -135 -21 -379 0 -514 51 -346 213 -664 468 -919 255 -255 573 -417 919 -468 135 -21 379 -21 514 0 346 51 664 213 919 468 208 208 345 441 428 728 75 262 75 634 0 896 -183 635 -709 1102 -1347 1196 -129 20 -397 19 -522 0z" id="path10" style="fill:#008000"/>
    <path d="M13907 10836 c-52 -19 -103 -60 -135 -108 -21 -33 -27 -56 -30 -113 -4 -79 8 -120 53 -173 48 -57 108 -85 194 -90 91 -5 144 8 199 48 68 49 96 101 100 185 6 107 -32 177 -126 232 -38 23 -60 28 -131 30 -56 2 -99 -2 -124 -11z" id="path12"/>
    <path d="M5700 10519 c-103 -46 -160 -137 -160 -254 1 -163 112 -275 275 -275 163 0 274 112 275 275 0 163 -112 275 -275 275 -49 0 -84 -7 -115 -21z" id="path14"/>
    <path d="M9551 10200 c-309 -65 -556 -291 -653 -600 -20 -66 -23 -95 -23 -240 0 -145 3 -174 23 -240 90 -285 297 -492 582 -582 66 -20 95 -23 240 -23 145 0 174 3 240 23 285 90 492 297 582 582 20 66 23 95 23 240 0 145 -3 174 -23 240 -89 283 -294 489 -577 580 -57 18 -98 23 -220 26 -82 2 -170 -1 -194 -6z" id="path16"/>
    <path d="M13821 10200 c-309 -65 -556 -291 -653 -600 -20 -66 -23 -95 -23 -240 0 -145 3 -174 23 -240 90 -285 297 -492 582 -582 66 -20 95 -23 240 -23 145 0 174 3 240 23 285 90 492 297 582 582 20 66 23 95 23 240 0 145 -3 174 -23 240 -89 283 -294 489 -577 580 -57 18 -98 23 -220 26 -82 2 -170 -1 -194 -6z" id="path18"/>
    <path d="M6471 9900 c-309 -65 -556 -291 -653 -600 -20 -66 -23 -95 -23 -240 0 -145 3 -174 23 -240 90 -285 297 -492 582 -582 66 -20 95 -23 240 -23 145 0 174 3 240 23 285 90 492 297 582 582 20 66 23 95 23 240 0 145 -3 174 -23 240 -89 283 -294 489 -577 580 -57 18 -98 23 -220 26 -82 2 -170 -1 -194 -6z" id="path20"/>
    <path d="M16901 9900 c-309 -65 -556 -291 -653 -600 -20 -66 -23 -95 -23 -240 0 -145 3 -174 23 -240 90 -285 297 -492 582 -582 66 -20 95 -23 240 -23 145 0 174 3 240 23 285 90 492 297 582 582 20 66 23 95 23 240 0 145 -3 174 -23 240 -89 283 -294 489 -577 580 -57 18 -98 23 -220 26 -82 2 -170 -1 -194 -6z" id="path22"/>
    <path d="M19301 9115 c-361 -81 -629 -329 -738 -682 -25 -82 -27 -100 -27 -273 0 -173 2 -191 27 -273 101 -326 338 -563 664 -664 82 -25 100 -27 273 -27 173 0 191 2 273 27 326 101 563 338 664 664 25 82 27 100 27 273 0 173 -2 191 -27 273 -101 326 -341 566 -664 663 -76 23 -110 27 -248 30 -114 3 -178 -1 -224 -11z" id="path24" style="fill:#008000"/>
    <path d="M10765 8801 c-199 -57 -368 -229 -419 -427 -9 -36 -16 -103 -16 -159 0 -177 54 -309 175 -430 121 -121 253 -175 430 -175 177 0 309 54 430 175 121 121 175 253 175 430 0 56 -7 123 -16 159 -52 202 -228 378 -430 430 -83 22 -250 20 -329 -3z" id="path26"/>
    <path d="M12605 8801 c-199 -57 -368 -229 -419 -427 -9 -36 -16 -103 -16 -159 0 -177 54 -309 175 -430 121 -121 253 -175 430 -175 177 0 309 54 430 175 121 121 175 253 175 430 0 56 -7 123 -16 159 -52 202 -228 378 -430 430 -83 22 -250 20 -329 -3z" id="path28"/>
    <path d="M4011 7725 c-362 -82 -629 -329 -738 -682 -25 -82 -27 -100 -27 -273 0 -173 2 -191 27 -273 101 -326 338 -563 664 -664 82 -25 100 -27 273 -27 173 0 191 2 273 27 326 101 563 338 664 664 25 82 27 100 27 273 0 173 -2 191 -27 273 -101 326 -341 566 -664 663 -76 23 -110 27 -248 30 -114 3 -178 -1 -224 -11z" id="path30"/>
    <path d="M6043 7649 c-61 -23 -131 -88 -165 -150 -20 -38 -23 -58 -23 -149 0 -122 15 -162 91 -236 117 -114 331 -114 448 0 76 74 91 114 91 236 0 122 -15 162 -91 236 -84 82 -233 108 -351 63z" id="path32"/>
    <path d="M10765 7301 c-199 -57 -368 -229 -419 -427 -9 -36 -16 -103 -16 -159 0 -177 54 -309 175 -430 121 -121 253 -175 430 -175 177 0 309 54 430 175 121 121 175 253 175 430 0 56 -7 123 -16 159 -52 202 -228 378 -430 430 -83 22 -250 20 -329 -3z" id="path34" style="fill:#008000"/>
    <path d="M12605 7301 c-199 -57 -368 -229 -419 -427 -9 -36 -16 -103 -16 -159 0 -177 54 -309 175 -430 121 -121 253 -175 430 -175 177 0 309 54 430 175 121 121 175 253 175 430 0 56 -7 123 -16 159 -52 202 -228 378 -430 430 -83 22 -250 20 -329 -3z" id="path36" style="fill:#008000"/>
    <path d="M19916 6759 c-128 -30 -273 -148 -333 -269 -41 -84 -53 -136 -53 -240 0 -47 5 -105 11 -130 40 -174 205 -339 379 -379 58 -13 202 -13 260 0 174 40 339 205 379 379 13 58 13 202 0 260 -40 174 -205 339 -379 379 -54 13 -210 12 -264 0z" id="path38"/>
    <path d="M6471 6710 c-309 -65 -556 -291 -653 -600 -20 -66 -23 -95 -23 -240 0 -145 3 -174 23 -240 90 -285 297 -492 582 -582 66 -20 95 -23 240 -23 145 0 174 3 240 23 285 90 492 297 582 582 20 66 23 95 23 240 0 145 -3 174 -23 240 -89 283 -294 489 -577 580 -57 18 -98 23 -220 26 -82 2 -170 -1 -194 -6z" id="path40" style="fill:#008000"/>
    <path d="M16901 6710 c-309 -65 -556 -291 -653 -600 -20 -66 -23 -95 -23 -240 0 -145 3 -174 23 -240 90 -285 297 -492 582 -582 66 -20 95 -23 240 -23 145 0 174 3 240 23 285 90 492 297 582 582 20 66 23 95 23 240 0 145 -3 174 -23 240 -89 283 -294 489 -577 580 -57 18 -98 23 -220 26 -82 2 -170 -1 -194 -6z" id="path42" style="fill:#008000"/>
    <path d="M2555 6611 c-76 -36 -130 -90 -166 -166 -25 -52 -29 -72 -29 -145 0 -73 4 -93 29 -145 36 -76 90 -130 166 -166 52 -25 72 -29 145 -29 73 0 93 4 145 29 71 34 127 87 163 156 24 45 27 61 27 155 0 94 -3 110 -27 155 -36 69 -92 122 -163 156 -52 25 -72 29 -145 29 -73 0 -93 -4 -145 -29z" id="path44"/>
    <path d="M9551 6410 c-309 -65 -556 -291 -653 -600 -20 -66 -23 -95 -23 -240 0 -145 3 -174 23 -240 90 -285 297 -492 582 -582 66 -20 95 -23 240 -23 145 0 174 3 240 23 285 90 492 297 582 582 20 66 23 95 23 240 0 145 -3 174 -23 240 -89 283 -294 489 -577 580 -57 18 -98 23 -220 26 -82 2 -170 -1 -194 -6z" id="path46" style="fill:#008000"/>
    <path d="M13821 6410 c-309 -65 -556 -291 -653 -600 -20 -66 -23 -95 -23 -240 0 -145 3 -174 23 -240 90 -285 297 -492 582 -582 66 -20 95 -23 240 -23 145 0 174 3 240 23 285 90 492 297 582 582 20 66 23 95 23 240 0 145 -3 174 -23 240 -89 283 -294 489 -577 580 -57 18 -98 23 -220 26 -82 2 -170 -1 -194 -6z" id="path48" style="fill:#008000"/>
    <path d="M18650 5889 c-103 -46 -160 -137 -160 -254 1 -163 112 -275 275 -275 163 0 274 112 275 275 0 163 -112 275 -275 275 -49 0 -84 -7 -115 -21z" id="path50"/>
    <path d="M4800 5549 c-103 -46 -160 -137 -160 -254 1 -163 112 -275 275 -275 163 0 274 112 275 275 0 163 -112 275 -275 275 -49 0 -84 -7 -115 -21z" id="path52"/>
    <path d="M3255 5464 c-251 -39 -516 -150 -727 -306 -106 -78 -268 -240 -346 -346 -159 -215 -268 -478 -306 -735 -21 -135 -21 -379 0 -514 105 -707 680 -1282 1387 -1387 135 -21 379 -21 514 0 707 105 1282 680 1387 1387 21 135 21 379 0 514 -51 346 -213 664 -468 919 -255 255 -573 417 -919 468 -129 20 -397 19 -522 0z" id="path54"/>
    <path d="M19925 5464 c-251 -39 -516 -150 -727 -306 -106 -78 -268 -240 -346 -346 -159 -215 -268 -478 -306 -735 -21 -135 -21 -379 0 -514 105 -707 680 -1282 1387 -1387 135 -21 379 -21 514 0 707 105 1282 680 1387 1387 33 217 16 512 -40 705 -83 287 -220 520 -428 728 -255 255 -573 417 -919 468 -129 20 -397 19 -522 0z" id="path56"/>
    <path d="M7500 5010 c-346 -48 -677 -186 -955 -399 -85 -65 -247 -223 -318 -311 -200 -247 -335 -534 -404 -859 -26 -119 -28 -141 -28 -386 0 -245 2 -267 28 -386 87 -409 274 -749 563 -1029 276 -267 595 -434 983 -517 119 -26 141 -27 386 -27 245 0 267 1 386 27 309 66 581 190 824 376 85 65 247 223 318 311 199 247 335 535 404 855 26 123 28 144 28 390 0 246 -2 267 -28 390 -65 304 -190 578 -376 820 -65 85 -223 247 -311 318 -246 199 -536 336 -853 403 -107 23 -151 26 -352 29 -126 2 -259 0 -295 -5z" id="path58" style="fill:#008000"/>
    <path d="M15700 5010 c-346 -48 -677 -186 -955 -399 -85 -65 -247 -223 -318 -311 -199 -247 -335 -535 -404 -855 -26 -123 -28 -144 -28 -390 0 -246 2 -267 28 -390 87 -404 274 -746 563 -1025 276 -267 595 -434 983 -517 119 -26 141 -27 386 -27 245 0 267 1 386 27 309 66 581 190 824 376 85 65 247 223 318 311 200 247 335 534 404 859 26 119 28 141 28 386 0 245 -2 267 -28 386 -66 309 -190 581 -376 824 -65 85 -223 247 -311 318 -246 199 -536 336 -853 403 -107 23 -151 26 -352 29 -126 2 -259 0 -295 -5z" id="path60" style="fill:#008000"/>
    <path d="M1383 2779 c-66 -25 -141 -93 -173 -155 -21 -42 -25 -63 -25 -144 0 -81 4 -102 25 -144 57 -111 171 -176 310 -176 139 0 253 65 310 176 21 42 25 63 25 144 0 81 -4 102 -25 144 -32 64 -107 130 -176 155 -74 28 -198 28 -271 0z" id="path62"/>
  </g>
</svg>