<svg xmlns="http://www.w3.org/2000/svg" version="1.0" width="250.000000pt" height="250.000000pt" viewBox="0 0 250.000000 250.000000" preserveAspectRatio="xMidYMid meet">
<metadata>
Created by potrace 1.11, written by Peter Selinger 2001-2013
</metadata>
<g transform="translate(0.000000,250.000000) scale(0.100000,-0.100000)" fill="#000000" stroke="none">
<path d="M695 1997 c-88 -42 -135 -118 -135 -216 1 -131 104 -233 235 -233 132 0 234 102 235 235 0 131 -90 224 -225 234 -49 3 -70 0 -110 -20z"/>
<path d="M1691 1999 c-78 -35 -128 -102 -138 -188 -20 -172 137 -301 307 -253 123 35 197 193 147 313 -50 122 -198 181 -316 128z"/>
<path d="M213 1879 c-50 -15 -109 -79 -122 -136 -19 -77 -3 -138 50 -191 82 -83 211 -81 291 4 33 36 60 131 49 172 -37 126 -144 187 -268 151z"/>
<path d="M2220 1874 c-155 -67 -161 -285 -10 -362 90 -45 207 -12 261 75 19 30 24 52 24 105 0 58 -4 72 -30 109 -56 79 -160 110 -245 73z"/>
<path d="M1532 1651 c-19 -12 -11 -45 12 -49 26 -5 50 26 35 45 -13 15 -28 16 -47 4z"/>
<path d="M537 1613 c-13 -13 -7 -42 12 -52 25 -14 54 16 40 42 -10 17 -40 23 -52 10z"/>
<path d="M960 1548 c-29 -28 -32 -36 -27 -75 8 -76 62 -111 132 -87 58 20 84 74 61 129 -30 72 -112 88 -166 33z"/>
<path d="M1486 1559 c-58 -46 -49 -135 16 -168 73 -36 148 10 148 90 0 83 -98 130 -164 78z"/>
<path d="M633 1542 c-34 -5 -73 -58 -73 -98 0 -46 14 -70 50 -89 85 -44 165 21 146 118 -10 49 -63 79 -123 69z"/>
<path d="M1871 1529 c-35 -21 -51 -47 -51 -83 0 -91 103 -138 169 -77 28 26 36 49 32 91 -8 70 -88 107 -150 69z"/>
<path d="M2152 1431 c-81 -52 -61 -185 32 -210 110 -29 193 106 118 190 -37 41 -102 50 -150 20z"/>
<path d="M1165 1412 c-34 -7 -55 -33 -55 -68 0 -45 26 -74 67 -74 55 0 88 50 67 105 -8 21 -54 43 -79 37z"/>
<path d="M1350 1390 c-44 -44 -10 -120 55 -120 63 0 92 74 48 122 -22 24 -78 23 -103 -2z"/>
<path d="M333 1278 c-44 -11 -83 -61 -83 -104 0 -133 174 -172 225 -51 35 85 -51 179 -142 155z"/>
<path d="M580 1260 c-28 -28 -11 -63 28 -58 21 2 28 9 30 30 5 39 -30 56 -58 28z"/>
<path d="M1137 1218 c-65 -50 -12 -153 64 -126 33 11 49 35 49 72 0 52 -70 86 -113 54z"/>
<path d="M1352 1210 c-28 -26 -29 -73 -2 -100 35 -35 118 -19 121 23 0 7 2 20 4 31 5 26 -38 66 -73 66 -15 0 -38 -9 -50 -20z"/>
<path d="M2240 1147 c-26 -27 -25 -62 0 -87 47 -47 123 3 99 67 -15 41 -70 52 -99 20z"/>
<path d="M591 1131 c-24 -22 -31 -38 -31 -66 0 -122 147 -153 195 -41 41 95 -87 179 -164 107z"/>
<path d="M1874 1149 c-28 -14 -54 -61 -54 -97 0 -40 41 -88 81 -96 42 -8 93 17 112 56 43 88 -50 180 -139 137z"/>
<path d="M149 1126 c-15 -33 4 -58 40 -54 22 3 26 8 26 38 0 31 -3 35 -27 38 -22 3 -30 -2 -39 -22z"/>
<path d="M978 1106 c-83 -56 -46 -186 53 -186 94 0 143 132 66 179 -44 28 -85 31 -119 7z"/>
<path d="M1501 1109 c-91 -55 -56 -189 49 -189 122 0 138 172 18 199 -28 7 -43 5 -67 -10z"/>
<path d="M2101 1046 c-15 -17 -5 -43 19 -49 25 -6 43 16 35 43 -7 23 -37 27 -54 6z"/>
<path d="M427 1013 c-14 -13 -7 -43 12 -53 28 -14 55 13 41 41 -10 19 -40 26 -53 12z"/>
<path d="M214 997 c-133 -50 -174 -221 -78 -323 126 -133 350 -43 345 138 -3 139 -139 233 -267 185z"/>
<path d="M2237 1000 c-112 -35 -168 -167 -118 -275 73 -158 304 -151 366 12 35 91 -6 203 -89 246 -43 23 -117 31 -159 17z"/>
<path d="M753 949 c-177 -31 -256 -244 -141 -383 142 -172 426 -65 417 157 -3 70 -18 108 -63 155 -56 61 -130 85 -213 71z"/>
<path d="M1717 943 c-95 -28 -167 -127 -167 -230 0 -164 176 -278 328 -213 92 40 145 122 144 222 -2 157 -152 266 -305 221z"/>
<path d="M30 681 c-29 -8 -38 -42 -16 -60 24 -20 66 -6 66 23 0 31 -19 44 -50 37z"/>
</g>
</svg>